<?xml version="1.0" encoding="utf-8"?>
<!-- Svg Vector Icons : http://www.onlinewebfonts.com/icon -->
<!DOCTYPE svg PUBLIC "-//W3C//DTD SVG 1.1//EN" "http://www.w3.org/Graphics/SVG/1.1/DTD/svg11.dtd">
<svg version="1.1" xmlns="http://www.w3.org/2000/svg" xmlns:xlink="http://www.w3.org/1999/xlink" x="0px" y="0px" viewBox="0 0 1000 1000" enable-background="new 0 0 1000 1000" xml:space="preserve">
<metadata> Svg Vector Icons : http://www.onlinewebfonts.com/icon </metadata>
<g><path d="M302,172.4c-143,73.7-234.7,221.1-234.7,384.9C67.3,796.3,261,990,500,990c239,0,432.7-193.7,432.7-432.7c0-164.3-92.3-312.1-236-385.5c-10.6-5.4-23.7-1.2-29.1,9.4c-5.4,10.6-1.2,23.7,9.4,29.1c129.3,66.1,212.4,199.1,212.4,347c0,215.1-174.4,389.4-389.4,389.4c-215.1,0-389.4-174.4-389.4-389.4c0-147.4,82.6-280.1,211.3-346.4c10.6-5.5,14.8-18.5,9.3-29.1C325.7,171.1,312.7,167,302,172.4L302,172.4z"/><path d="M477.2,10h45.5v501h-45.5V10z"/></g>
</svg>