<?xml version="1.0" encoding="UTF-8" standalone="no"?>
<svg
   xmlns:dc="http://purl.org/dc/elements/1.1/"
   xmlns:cc="http://creativecommons.org/ns#"
   xmlns:rdf="http://www.w3.org/1999/02/22-rdf-syntax-ns#"
   xmlns:svg="http://www.w3.org/2000/svg"
   xmlns="http://www.w3.org/2000/svg"
   viewBox="0 0 46.666668 46.666668"
   height="46.666668"
   width="46.666668"
   xml:space="preserve"
   id="svg2"
   version="1.1"><metadata
     id="metadata8"><rdf:RDF><cc:Work
         rdf:about=""><dc:format>image/svg+xml</dc:format><dc:type
           rdf:resource="http://purl.org/dc/dcmitype/StillImage" /></cc:Work></rdf:RDF></metadata><defs
     id="defs6" /><g
     transform="matrix(1.3333333,0,0,-1.3333333,0,46.666667)"
     id="g10"><g
       transform="scale(0.1)"
       id="g12"><path
         id="path14"
         style="fill:#211d1c;fill-opacity:1;fill-rule:nonzero;stroke:none"
         d="M 350,175 C 350,78.3516 271.648,0 175,0 78.3438,0 0,78.3516 0,175 c 0,96.645 78.3438,175 175,175 96.648,0 175,-78.355 175,-175" /><path
         id="path16"
         style="fill:#ffffff;fill-opacity:1;fill-rule:nonzero;stroke:none"
         d="m 209.59,176.715 -55.981,-30.25 -0.015,46.566 v 14.16 l 25.25,-13.746 z m 66.973,41.012 c 0,0 -2.012,14.906 -8.223,21.457 -7.891,8.597 -16.719,8.652 -20.762,9.152 -29.023,2.176 -72.523,2.176 -72.523,2.176 h -0.098 c 0,0 -43.527,0 -72.523,-2.188 -4.0512,-0.488 -12.8754,-0.543 -20.7738,-9.144 -6.1993,-6.559 -8.2266,-21.465 -8.2266,-21.465 0,0 -2.082,-17.481 -2.082,-34.981 v -2.105 -14.281 c 0,-17.5 2.082,-34.993 2.082,-34.993 0,0 2.0273,-14.902 8.2266,-21.453 7.8984,-8.613 18.2656,-8.339 22.8668,-9.226 C 121.113,99.0156 175,98.4961 175,98.4961 c 0,0 43.555,0.0781 72.578,2.2579 4.043,0.508 12.871,0.535 20.762,9.156 6.211,6.555 8.223,21.445 8.223,21.445 0,0 2.089,17.493 2.089,34.993 v 13.375 3.011 c 0,17.5 -2.089,34.993 -2.089,34.993" /></g></g></svg>