<?xml version="1.0" encoding="UTF-8" standalone="no"?>
<svg
   xmlns:dc="http://purl.org/dc/elements/1.1/"
   xmlns:cc="http://creativecommons.org/ns#"
   xmlns:rdf="http://www.w3.org/1999/02/22-rdf-syntax-ns#"
   xmlns:svg="http://www.w3.org/2000/svg"
   xmlns="http://www.w3.org/2000/svg"
   viewBox="0 0 70.813332 62.026669"
   height="62.026669"
   width="70.813332"
   xml:space="preserve"
   id="svg2"
   version="1.1"><metadata
     id="metadata8"><rdf:RDF><cc:Work
         rdf:about=""><dc:format>image/svg+xml</dc:format><dc:type
           rdf:resource="http://purl.org/dc/dcmitype/StillImage" /></cc:Work></rdf:RDF></metadata><defs
     id="defs6" /><g
     transform="matrix(1.3333333,0,0,-1.3333333,0,62.026667)"
     id="g10"><g
       transform="scale(0.1)"
       id="g12"><path
         id="path14"
         style="fill:#ffffff;fill-opacity:1;fill-rule:nonzero;stroke:none"
         d="m 380.855,460.172 h -199.64 c -79.86,0 -145.1916,-65.336 -145.1916,-145.195 V 283.195 C 36.0234,248.43 48.4219,216.434 69,191.363 L 9.58594,12.8086 189.828,138.004 h 191.027 c 79.864,0 145.196,65.332 145.196,145.191 v 31.782 c 0,79.859 -65.332,145.195 -145.196,145.195" /><path
         id="path16"
         style="fill:none;stroke:#a08183;stroke-width:10.10099983;stroke-linecap:butt;stroke-linejoin:miter;stroke-miterlimit:10;stroke-dasharray:none;stroke-opacity:1"
         d="m 380.855,460.172 h -199.64 c -79.86,0 -145.1916,-65.336 -145.1916,-145.195 V 283.195 C 36.0234,248.43 48.4219,216.434 69,191.363 L 9.58594,12.8086 189.828,138.004 h 191.027 c 79.864,0 145.196,65.332 145.196,145.191 v 31.782 c 0,79.859 -65.332,145.195 -145.196,145.195 z" /></g></g></svg>