<?xml version="1.0" encoding="UTF-8" standalone="no"?>
<svg
   xmlns:dc="http://purl.org/dc/elements/1.1/"
   xmlns:cc="http://creativecommons.org/ns#"
   xmlns:rdf="http://www.w3.org/1999/02/22-rdf-syntax-ns#"
   xmlns:svg="http://www.w3.org/2000/svg"
   xmlns="http://www.w3.org/2000/svg"
   viewBox="0 0 46.666668 46.666668"
   height="46.666668"
   width="46.666668"
   xml:space="preserve"
   id="svg2"
   version="1.1"><metadata
     id="metadata8"><rdf:RDF><cc:Work
         rdf:about=""><dc:format>image/svg+xml</dc:format><dc:type
           rdf:resource="http://purl.org/dc/dcmitype/StillImage" /></cc:Work></rdf:RDF></metadata><defs
     id="defs6" /><g
     transform="matrix(1.3333333,0,0,-1.3333333,0,46.666667)"
     id="g10"><g
       transform="scale(0.1)"
       id="g12"><path
         id="path14"
         style="fill:#100f0d;fill-opacity:1;fill-rule:nonzero;stroke:none"
         d="M 350,175 C 350,78.3516 271.648,0 175,0 78.3477,0 0,78.3516 0,175 c 0,96.652 78.3477,175 175,175 96.648,0 175,-78.348 175,-175" /><path
         id="path16"
         style="fill:#ffffff;fill-opacity:1;fill-rule:nonzero;stroke:none"
         d="m 183.727,285.316 c -58.446,-0.007 -87.9262,-40.558 -87.9262,-74.378 0,-6.25 0.75,-12.282 2.2851,-17.852 3.4691,-12.676 10.9771,-22.914 22.8941,-27.641 2.836,-1.109 5.36,-0.039 6.172,2.989 0.567,2.093 1.911,7.351 2.52,9.57 0.808,2.984 0.504,4.019 -1.774,6.625 -2.98,3.394 -5.285,7.406 -6.683,12.301 -0.922,3.261 -1.449,6.898 -1.449,11.043 0,30.093 23.281,57.039 60.586,57.039 33.039,0 51.191,-19.543 51.191,-45.625 0,-7.688 -0.781,-15.102 -2.266,-21.985 -5.144,-23.867 -18.64,-41.328 -36.718,-41.328 -12.891,0 -22.532,10.297 -19.446,22.93 1.77,7.187 4.321,14.644 6.5,21.66 2.403,7.715 4.371,14.895 4.371,20.59 0,9.742 -5.406,17.867 -16.586,17.867 -13.168,0 -23.746,-13.164 -23.746,-30.805 0,-3.328 0.352,-6.32 0.836,-8.906 1.157,-6.156 3.094,-9.953 3.094,-9.953 0,0 -13.465,-55.187 -15.824,-64.867 -4.692,-19.266 -0.711,-42.8712 -0.367,-45.2423 0.195,-1.418 2.082,-1.7579 2.929,-0.6954 1.215,1.5235 16.887,20.2618 22.211,38.9647 1.512,5.313 8.657,32.727 8.657,32.727 4.269,-7.903 16.769,-14.836 30.054,-14.836 32.207,0 55.988,23.152 63.696,56.976 1.765,7.707 2.695,15.965 2.695,24.625 0,35.317 -30.918,68.207 -77.906,68.207" /></g></g></svg>